<?xml version="1.0" encoding="UTF-8" standalone="no"?>
<!-- Created with Inkscape (http://www.inkscape.org/) -->
<svg id="svg2816" xmlns:rdf="http://www.w3.org/1999/02/22-rdf-syntax-ns#" xmlns="http://www.w3.org/2000/svg" height="301" width="545" version="1.1" xmlns:cc="http://creativecommons.org/ns#" xmlns:xlink="http://www.w3.org/1999/xlink" xmlns:dc="http://purl.org/dc/elements/1.1/">
 <metadata id="metadata2822">
  <rdf:RDF>
   <cc:Work rdf:about="">
    <dc:format>image/svg+xml</dc:format>
    <dc:type rdf:resource="http://purl.org/dc/dcmitype/StillImage"/>
    <dc:title/>
   </cc:Work>
  </rdf:RDF>
 </metadata>
 <defs id="defs2820">
  <linearGradient id="linearGradient5100" y2="66.322" gradientUnits="userSpaceOnUse" x2="162.48" y1="66.322" x1="142.35">
   <stop id="stop5094" stop-color="#d4aa00" offset="0"/>
   <stop id="stop5096" stop-color="#d4aa00" stop-opacity="0" offset="1"/>
  </linearGradient>
  <linearGradient id="linearGradient5118" y2="117.34" gradientUnits="userSpaceOnUse" x2="186.71" y1="140.3" x1="87.504">
   <stop id="stop3630" stop-color="#d4aa00" offset="0"/>
   <stop id="stop3632" stop-color="#d4aa00" stop-opacity="0" offset="1"/>
  </linearGradient>
  <linearGradient id="linearGradient5238" y2="66.322" gradientUnits="userSpaceOnUse" y1="66.322" gradientTransform="translate(-0.44959603,-2.0604853)" x2="162.48" x1="142.35">
   <stop id="stop5094-6" stop-color="#d4aa00" offset="0"/>
   <stop id="stop5096-0" stop-color="#d4aa00" stop-opacity="0" offset="1"/>
  </linearGradient>
  <linearGradient id="linearGradient5281" y2="166.85" gradientUnits="userSpaceOnUse" x2="520.42" y1="166.85" x1="158.68">
   <stop id="stop5277" stop-color="#d4aa00" offset="0"/>
   <stop id="stop5279" stop-color="#d4aa00" stop-opacity="0" offset="1"/>
  </linearGradient>
  <linearGradient id="linearGradient5289" y2="117.34" gradientUnits="userSpaceOnUse" x2="519.25" y1="117.34" x1="200.09">
   <stop id="stop5285" stop-color="#d4aa00" offset="0"/>
   <stop id="stop5287" stop-color="#d4aa00" stop-opacity="0" offset="1"/>
  </linearGradient>
  <linearGradient id="linearGradient5309" y2="166.85" gradientUnits="userSpaceOnUse" y1="166.85" gradientTransform="translate(3.1565152,-1.1273213)" x2="520.42" x1="158.68">
   <stop id="stop5277-5" stop-color="#d4aa00" offset="0"/>
   <stop id="stop5279-8" stop-color="#d4aa00" stop-opacity="0" offset="1"/>
  </linearGradient>
  <linearGradient id="linearGradient5346" y2="74.633" gradientUnits="userSpaceOnUse" x2="473.98" y1="74.633" x1="448.63">
   <stop id="stop5342" stop-color="#d4aa00" offset="0"/>
   <stop id="stop5344" stop-color="#d4aa00" stop-opacity="0" offset="1"/>
  </linearGradient>
 </defs>
 <path id="path5120" stroke-linejoin="bevel" d="M92.625,49.531c-3.013,0.036-5.169,1.892-6.219,4.938-2.421,2.949-2.214,7.132,1.125,9.343,4.221,5.105,6.557,11.845,5.031,18.344,0.472,8.45-11.237,14.871-17.468,8.156-2.504-1.993-7.908-4.947-8.969,0.032-6.46,8.757-13.164,17.466-19.563,26.186,3.792,4.05,10.421,2,15.126,4.53l27.812,6.6c1.961,6.68-8.606,7.27-12.469,11.12-10.621,6.47-22.7,12.38-32.437,19.19,3.847,3.95,10.463,3.03,14.968,6.15,15.183,5.28,30.646,11.82,45.658,16.32,2.23-4.75-0.18-10.38,0.34-15.41-1.41-8.79,8.83-11.82,14.85-15.19,3.36-1.14,5.47-5.63,1.65-7.72-1.89-4.45-7.95-7.8-6.81-13.06,3.57-3.77,9.67,0.31,14.16-0.78,3.77,0.62,12.5-1.46,11.25,4.6-1.29,7.6-1.13,17.22-9.13,21.43-3.93,3.47-9.57,6.3-12.19,10.66,1.6,6.81,5.3,13.24,8.25,19.25,7.28,0.28,13.91-3.86,21.13-4.84,3.85-1.43,9.61-1.08,12.34-4.16-0.34-5.93-8.26-10.08-6.03-16,5.28-5.15,13.22-6.71,18.88-10.91,1.19-7.43-7.91-13.9-4.32-21.28,3.81-5.65,13.28-0.12,16.22-6.22-2.1-6.24-5.59-12.37-7.65-18.81-3.76-8.94-6.92-18.632-11.04-27.125-6.38,0.519-10.92,6.295-16.93,8.125-5.84,3.361-12.53,6.27-17.85,9.906,2.11,5.302,8.84,6.615,11.91,11.344,2.53,2.86,10.55,5.47,7.69,10.31-5.16,1.75-11.31,1.64-16.75,0.6-6.67-1.78-13.89-6.27-13.91-14.13-0.32-5.677-6.16-11.449-1.37-16.811,7.1-7.156,14.79-14.108,18.47-23.813-0.84-2.828-2-8.558-5.79-8.844-4.19,3.489-11.2,3.073-14.5,7.657,3.84,2.233,2.44,8.562-2.37,7.531-5.06-0.263-11.34-4.02-9.41-9.938,0.28-2.262,2.4-8.348-2.22-6.968-3.37,0.187-6.747-0.311-10.121-0.219-0.465-0.071-0.914-0.099-1.344-0.094z" stroke-dashoffset="0" stroke="#9d6113" stroke-linecap="round" stroke-miterlimit="4" stroke-dasharray="0.50000000000000000, 0.50000000000000000" stroke-width="1" fill="url(#linearGradient5118)"/>
 <path id="path5116" stroke-linejoin="bevel" d="m93.969,49.625c-3.7162-0.57045-6.3631,1.3634-7.5625,4.8438-2.4212,2.9496-2.2146,7.1322,1.125,9.3438,4.221,5.1048,6.557,11.845,5.0312,18.344,0.47159,8.4502-11.238,14.871-17.469,8.1562-2.5042-1.9936-7.9073-4.9474-8.9688,0.03125-6.4603,8.7568-13.164,17.462-19.562,26.188,3.7915,4.0455,10.421,1.9949,15.125,4.5312l27.813,6.6c1.9606,6.6839-8.606,7.2697-12.469,11.125-10.621,6.4663-22.7,12.375-32.438,19.188,3.8473,3.9469,10.463,3.0274,14.969,6.1562,15.182,5.275,30.645,11.814,45.656,16.312,2.2284-4.7504-0.18279-10.382,0.34375-15.406-1.4164-8.7901,8.8312-11.816,14.844-15.188,3.3599-1.1461,5.4775-5.634,1.6562-7.7188-1.8876-4.4559-7.9528-7.8028-6.8125-13.062,3.5664-3.7712,9.6734,0.30477,14.156-0.78125,3.772,0.62183,12.499-1.4621,11.25,4.5938-1.2868,7.6035-1.1293,17.229-9.125,21.438-3.9312,3.4664-9.5724,6.2962-12.188,10.656,1.5987,6.814,5.2995,13.237,8.25,19.25,7.2772,0.28097,13.91-3.8576,21.125-4.8438,3.8514-1.4202,9.6134-1.0705,12.344-4.1562-0.34086-5.9258-8.2627-10.078-6.0312-16,5.275-5.144,13.223-6.7084,18.875-10.906,1.1918-7.4368-7.9063-13.902-4.3125-21.281,3.8093-5.6484,13.279-0.11696,16.219-6.2188-2.104-6.2385-5.5907-12.371-7.6562-18.812-3.7561-8.94-6.9156-18.632-11.031-27.125-6.3898,0.51931-10.923,6.2954-16.938,8.125-5.8342,3.3611-12.53,6.2696-17.844,9.9062,2.1025,5.3013,8.8406,6.6145,11.906,11.344,2.5277,2.8609,10.552,5.4743,7.6875,10.312-5.1606,1.7463-11.307,1.6421-16.75,0.59375-6.665-1.7758-13.887-6.2675-13.906-14.125-0.32418-5.6784-6.1605-11.45-1.375-16.812,7.1024-7.1559,14.797-14.108,18.469-23.812-0.83926-2.8286-1.9969-8.5582-5.7812-8.8438-4.198,3.4881-11.207,3.0727-14.5,7.6562,3.8363,2.2336,2.4346,8.5624-2.375,7.5312-5.0624-0.26304-11.337-4.0202-9.4062-9.9375,0.27967-2.2626,2.393-8.3484-2.2188-6.9688-3.3787,0.18686-6.7504-0.31053-10.125-0.21875z" transform="translate(3.8262624,-1.2754238)" stroke-dashoffset="0" stroke="#9d6115" stroke-linecap="round" stroke-miterlimit="4" stroke-dasharray="0.50000000000000000, 0.50000000000000000" stroke-width="1" fill="#d4aa00"/>
 <path id="path2834" stroke-linejoin="miter" d="m142.85,59.945,0,12.754,19.131-6.3771-19.131-6.3771" stroke="#9d6112" stroke-linecap="butt" stroke-width="1px" fill="url(#linearGradient5100)"/>
 <g id="text5133" font-weight="normal" font-size="100px" transform="translate(-5.1016949,5.1016949)" font-stretch="normal" font-variant="normal" font-style="normal" font-family="Stencil" fill="#502d16">
  <path id="path5146" fill="#502d16" d="m488.12,82.703c-1.6602,0.586-2.832,1.3835-3.5156,2.3926-0.68362,1.0092-1.0254,2.4903-1.0254,4.4434v43.652c-0.00003,2.8646,0.3906,4.8828,1.1719,6.0547,0.61847,0.97657,1.7415,1.6764,3.3691,2.0996v5.3711c-7.2266-0.58594-13.281-3.304-18.164-8.1543-6.3477-6.3151-9.5215-15.12-9.5215-26.416-0.00001-5.664,0.83821-10.783,2.5146-15.356,1.6764-4.5735,4.1585-8.4553,7.4463-11.646,2.5065-2.4413,5.2083-4.2968,8.1055-5.5664,2.8971-1.2695,6.1035-1.9856,9.6191-2.1484zm4.0039,0,0-5.2734c3.5156,0.16283,6.7301,0.87897,9.6436,2.1484,2.9134,1.2696,5.6233,3.1251,8.1299,5.5664,6.6406,6.4779,9.9609,15.479,9.9609,27.002-0.00006,11.296-3.1739,20.101-9.5215,26.416-4.8829,4.8828-10.954,7.6009-18.213,8.1543v-5.3711c0.84632-0.1953,1.5055-0.44758,1.9775-0.75683,0.47197-0.30924,0.90328-0.75683,1.2939-1.3428,0.87887-1.3346,1.3183-3.3528,1.3184-6.0547v-43.652c-0.00003-1.7252-0.293-3.0924-0.8789-4.1016-0.39066-0.68353-0.85453-1.2206-1.3916-1.6113-0.53715-0.39056-1.3103-0.76491-2.3193-1.123zm-69.238-3.9551,25.977,45.117,0,21.533-13.33,0-33.154-57.129c-0.71616-1.2369-1.3021-2.0996-1.7578-2.5879-0.45573-0.48822-1.0417-0.84629-1.7578-1.0742l-1.8555-0.68359c-0.48828-0.1627-0.87891-0.45567-1.1719-0.87891-0.29298-0.42311-0.43946-0.89512-0.43946-1.416,0-0.55332,0.14648-1.066,0.43946-1.5381,0.29296-0.47194,0.68359-0.8056,1.1719-1.001,0.55338-0.2278,2.0508-0.34173,4.4922-0.3418zm-20.459,17.139,5.1758,8.5938,0,26.172c-0.00002,2.2787,0.38247,4.1504,1.1475,5.6152,0.76495,1.4648,1.9775,2.6693,3.6377,3.6133l1.4648,0.83008c0.84633,0.48828,1.2695,1.2207,1.2695,2.1973-0.00003,0.7487-0.30927,1.3672-0.92774,1.8555-0.52085,0.42318-1.5951,0.63477-3.2226,0.63477h-11.279c-2.9622,0-4.4434-0.84636-4.4434-2.5391,0-0.58594,0.15462-1.0498,0.46387-1.3916,0.30924-0.34179,0.98469-0.80566,2.0264-1.3916,3.125-1.7252,4.6875-4.8665,4.6875-9.4238zm46.436,20.166-5.1758-8.7402,0-13.525c-0.00005-2.7343-0.39882-4.8258-1.1963-6.2744-0.79758-1.4485-2.2054-2.6936-4.2236-3.7354-0.68364-0.32546-1.1556-0.67539-1.416-1.0498-0.26046-0.37428-0.39067-0.85443-0.39062-1.4404-0.00005-0.87884,0.28478-1.5217,0.85449-1.9287,0.56961-0.40684,1.4892-0.61028,2.7588-0.61035h12.207c1.6601,0.000067,2.7506,0.26048,3.2715,0.78125,0.55332,0.5209,0.83002,1.1394,0.83008,1.8555-0.00006,0.68366-0.15469,1.1964-0.46386,1.5381-0.30931,0.34186-1.0499,0.80573-2.2217,1.3916-1.7253,0.87897-3.0274,2.2299-3.9062,4.0527-0.61855,1.3347-0.9278,3.1413-0.92774,5.4199zm-85.742-37.305,0,66.65-21.729,0-1.2695,0c-1.1719,0-2.0752-0.21973-2.71-0.65918-0.63477-0.43945-0.95216-1.0661-0.95215-1.8799-0.00001-1.3346,0.65103-2.2135,1.9531-2.6367,1.0742-0.35807,1.7008-0.5778,1.8799-0.65918,0.17902-0.0814,0.3662-0.26855,0.56152-0.56153,0.39061-0.52082,0.58593-1.3509,0.58594-2.4902v-48.877c-0.00001-1.1393-0.19533-1.9693-0.58594-2.4902-0.19532-0.29291-0.3825-0.48008-0.56152-0.56152-0.17905-0.08132-0.80568-0.30104-1.8799-0.65918-1.3021-0.42312-1.9531-1.302-1.9531-2.6367-0.00001-0.81374,0.31738-1.4404,0.95215-1.8799,0.63476-0.43939,1.5381-0.65911,2.71-0.65918h1.2695zm4.3457,0,19.678,0,0,17.285c-0.00005,1.0092-0.19537,1.7416-0.58594,2.1973-0.39068,0.45578-1.0092,0.68364-1.8555,0.68359-0.71619,0.000046-1.237-0.14644-1.5625-0.43945-0.32557-0.29292-0.63481-0.89514-0.92773-1.8066-1.237-3.776-3.0518-6.6568-5.4443-8.6426-2.3926-1.9856-5.4932-3.1738-9.3018-3.5645zm-0.24414,35.547,0-5.6641c1.888-0.91142,3.2877-1.9043,4.1992-2.9785,0.91142-1.0742,1.5787-2.5065,2.002-4.2969,0.26037-1.2369,0.60217-2.0914,1.0254-2.5635,0.42313-0.47196,1.0254-0.70796,1.8066-0.70801,1.0416,0.000047,1.7578,0.40695,2.1484,1.2207,0.22781,0.42322,0.34175,1.3835,0.34179,2.8809v18.604c-0.00004,1.53-0.17094,2.5879-0.51269,3.1738-0.34184,0.58596-0.96847,0.87893-1.8799,0.87891-0.74875,0.00002-1.3347-0.22785-1.7578-0.6836-0.42322-0.4557-0.76501-1.2207-1.0254-2.2949-0.55342-2.2461-1.3428-3.9713-2.3682-5.1758-1.0254-1.2044-2.3519-2.0019-3.9795-2.3926zm0.29296,31.104,0-5.2734c2.1158-0.32551,3.8655-0.78124,5.249-1.3672,1.3834-0.58593,2.775-1.4811,4.1748-2.6855,1.3997-1.2044,2.5146-2.4495,3.3447-3.7354,0.83003-1.2858,1.6194-2.9866,2.3682-5.1025,0.35803-1.0416,0.73237-1.7497,1.123-2.124,0.39057-0.37433,0.92768-0.5615,1.6113-0.56152,0.9114,0.00002,1.5462,0.26857,1.9043,0.80566,0.35801,0.53713,0.53705,1.473,0.5371,2.8076v17.236zm-94.678-19.482,0-38.281c-0.00001-1.1393-0.19532-1.9693-0.58594-2.4902-0.19532-0.29291-0.38249-0.48008-0.56152-0.56152-0.17904-0.08132-0.80567-0.30104-1.8799-0.65918-1.3021-0.42312-1.9531-1.2857-1.9531-2.5879,0-0.84629,0.31738-1.4892,0.95215-1.9287,0.63476-0.43939,1.5381-0.65911,2.71-0.65918h1.2695,21.777,1.2695l1.7578,0.19531c0.55335,0.16283,1.0091,0.4558,1.3672,0.87891,0.35804,0.42324,0.53707,0.9278,0.53711,1.5137-0.00004,1.3021-0.65108,2.1648-1.9531,2.5879-1.0742,0.35813-1.7009,0.57786-1.8799,0.65918-0.17907,0.08144-0.36624,0.26862-0.56152,0.56152-0.39066,0.52089-0.58597,1.351-0.58594,2.4902v40.967c-0.00003,2.7669,0.0732,4.6956,0.21972,5.7861,0.14646,1.0905,0.44757,2.0752,0.90332,2.9541,0.42315,0.81381,0.89516,1.3997,1.416,1.7578,0.5208,0.35808,1.5136,0.76498,2.9785,1.2207v6.3965h-1.0742c-4.2318,0-7.7474-0.37435-10.547-1.123-3.2878-0.87891-6.1686-2.181-8.6426-3.9062s-4.2318-3.6621-5.2734-5.8106c-1.1068-2.2786-1.6602-5.5989-1.6602-9.9609zm31.689,20.801,0-6.3965c3.2552-0.42317,5.9733-1.7578,8.1543-4.0039,2.4739-2.5716,3.7109-6.2663,3.7109-11.084v-31.836c-0.00005-4.4596-1.709-7.5683-5.127-9.3262-1.0092-0.52077-1.6683-0.96836-1.9775-1.3428-0.30929-0.37428-0.46392-0.91953-0.46387-1.6357-0.00005-0.84629,0.3092-1.4485,0.92773-1.8066,0.61845-0.35801,1.6276-0.53704,3.0274-0.53711h11.963c1.009,0.000067,1.6845,0.02448,2.0264,0.07324,0.34174,0.0489,0.6754,0.17096,1.001,0.36621,0.84629,0.48835,1.2695,1.1557,1.2695,2.002-0.00006,0.71621-0.26048,1.3184-0.78125,1.8066-0.16282,0.16282-0.86269,0.60228-2.0996,1.3184-1.4324,0.78131-2.5554,1.9776-3.3691,3.5889-0.81386,1.6114-1.2208,3.4424-1.2207,5.4932v31.885c-0.00006,5.4688-1.2045,9.961-3.6133,13.477-1.7579,2.6042-4.2806,4.6875-7.5684,6.25-1.6276,0.78125-3.5808,1.3509-5.8594,1.709zm-76.172-67.969,0,66.65-21.729,0-1.2695,0c-1.1719,0-2.0752-0.21973-2.71-0.65918-0.63477-0.43945-0.95215-1.0661-0.95215-1.8799,0-1.3346,0.65104-2.2135,1.9531-2.6367,1.0742-0.35807,1.7008-0.5778,1.8799-0.65918,0.17903-0.0814,0.3662-0.26855,0.56152-0.56153,0.39062-0.52082,0.58593-1.3509,0.58594-2.4902v-48.877c-0.00001-1.1393-0.19532-1.9693-0.58594-2.4902-0.19532-0.29291-0.38249-0.48008-0.56152-0.56152-0.17904-0.08132-0.80567-0.30104-1.8799-0.65918-1.3021-0.42312-1.9531-1.302-1.9531-2.6367,0-0.81374,0.31738-1.4404,0.95215-1.8799,0.63476-0.43939,1.5381-0.65911,2.71-0.65918h1.2695zm15.186,32.129c2.9296,0.58597,5.1839,1.1556,6.7627,1.709,1.5787,0.55342,3.0029,1.2533,4.2725,2.0996,2.1809,1.3998,3.8492,3.2471,5.0049,5.542,1.1555,2.2949,1.7333,4.8584,1.7334,7.6904-0.00006,5.5664-2.0508,9.9121-6.1523,13.037-2.1159,1.6276-4.4516,2.7751-7.0068,3.4424-2.5554,0.66732-5.9001,1.001-10.034,1.001h-5.8105v-5.127c1.302-0.0976,2.3274-0.28482,3.0762-0.56152,0.74866-0.27669,1.416-0.74055,2.002-1.3916,1.0742-1.2044,1.6113-3.0762,1.6113-5.6152v-11.084c-0.00004-1.6276-0.13839-2.8971-0.41504-3.8086-0.27673-0.91143-0.78943-1.7415-1.5381-2.4902-0.55342-0.5859-1.1556-1.0091-1.8066-1.2695-0.65107-0.26038-1.5788-0.47197-2.7832-0.63476v-5.0781c1.2044-0.0976,2.1403-0.26038,2.8076-0.48828,0.66728-0.22783,1.2776-0.60218,1.831-1.123,0.5208-0.48824,0.96025-1.123,1.3184-1.9043,0.35803-0.78121,0.55335-1.4974,0.58594-2.1484v-2.6856-8.4473c-0.00004-0.87885-0.14653-1.7984-0.43945-2.7588-0.29301-0.96023-0.65109-1.7171-1.0742-2.2705-0.61853-0.74864-1.3103-1.302-2.0752-1.6602-0.76501-0.35801-1.7985-0.60215-3.1006-0.73242v-5.3711h5.6152c7.4218,0.000067,13.086,1.53,16.992,4.5898,1.7903,1.3998,3.1575,3.0925,4.1016,5.0781,0.94395,1.9857,1.416,4.1342,1.416,6.4453-0.00007,2.2787-0.48021,4.4271-1.4404,6.4453-0.96035,2.0183-2.3031,3.6947-4.0283,5.0293-1.2696,1.0417-2.7344,1.8881-4.3945,2.5391-1.6602,0.65108-4.004,1.3184-7.0312,2.002z"/>
 </g>
 <path id="path5146-8" fill="url(#linearGradient5289)" stroke="#9d6100" d="m487.01,87.969c-1.6602,0.586-2.832,1.3835-3.5156,2.3926-0.68362,1.0092-1.0254,2.4903-1.0254,4.4434v43.652c-0.00003,2.8646,0.3906,4.8828,1.1719,6.0547,0.61847,0.97657,1.7415,1.6764,3.3691,2.0996v5.3711c-7.2266-0.58594-13.281-3.304-18.164-8.1543-6.3477-6.3151-9.5215-15.12-9.5215-26.416-0.00001-5.664,0.83821-10.783,2.5146-15.356,1.6764-4.5735,4.1585-8.4553,7.4463-11.646,2.5065-2.4413,5.2083-4.2968,8.1055-5.5664,2.8971-1.2695,6.1035-1.9856,9.6191-2.1484zm4.0039,0,0-5.2734c3.5156,0.16283,6.7301,0.87897,9.6436,2.1484,2.9134,1.2696,5.6233,3.1251,8.1299,5.5664,6.6406,6.4779,9.9609,15.479,9.9609,27.002-0.00006,11.296-3.1739,20.101-9.5215,26.416-4.8829,4.8828-10.954,7.6009-18.213,8.1543v-5.3711c0.84632-0.1953,1.5055-0.44758,1.9775-0.75683,0.47197-0.30924,0.90328-0.75683,1.2939-1.3428,0.87887-1.3346,1.3183-3.3528,1.3184-6.0547v-43.652c-0.00003-1.7252-0.293-3.0924-0.8789-4.1016-0.39066-0.68353-0.85453-1.2206-1.3916-1.6113-0.53715-0.39056-1.3103-0.76491-2.3193-1.123zm-69.238-3.9551,25.977,45.117,0,21.533-13.33,0-33.154-57.129c-0.71616-1.2369-1.3021-2.0996-1.7578-2.5879-0.45573-0.48822-1.0417-0.84629-1.7578-1.0742l-1.8555-0.68359c-0.48828-0.1627-0.87891-0.45567-1.1719-0.87891-0.29298-0.42311-0.43946-0.89511-0.43946-1.416,0-0.55332,0.14648-1.066,0.43946-1.5381,0.29296-0.47194,0.68359-0.80559,1.1719-1.001,0.55338-0.2278,2.0508-0.34173,4.4922-0.3418zm-20.459,17.139,5.1758,8.5938,0,26.172c-0.00002,2.2787,0.38247,4.1504,1.1475,5.6152,0.76495,1.4648,1.9775,2.6693,3.6377,3.6133l1.4648,0.83008c0.84633,0.48828,1.2695,1.2207,1.2695,2.1973-0.00003,0.7487-0.30927,1.3672-0.92774,1.8555-0.52085,0.42318-1.5951,0.63477-3.2226,0.63477h-11.279c-2.9622,0-4.4434-0.84636-4.4434-2.5391,0-0.58594,0.15462-1.0498,0.46387-1.3916,0.30924-0.34179,0.98469-0.80566,2.0264-1.3916,3.125-1.7252,4.6875-4.8665,4.6875-9.4238zm46.436,20.166-5.1758-8.7402,0-13.525c-0.00005-2.7343-0.39882-4.8258-1.1963-6.2744-0.79758-1.4485-2.2054-2.6936-4.2236-3.7354-0.68364-0.32546-1.1556-0.6754-1.416-1.0498-0.26046-0.37428-0.39067-0.85443-0.39062-1.4404-0.00005-0.87884,0.28478-1.5217,0.85449-1.9287,0.56961-0.40683,1.4892-0.61028,2.7588-0.61035h12.207c1.6601,0.00007,2.7506,0.26048,3.2715,0.78125,0.55332,0.5209,0.83002,1.1394,0.83008,1.8555-0.00006,0.68366-0.15469,1.1964-0.46386,1.5381-0.30931,0.34186-1.0499,0.80573-2.2217,1.3916-1.7253,0.87896-3.0274,2.2299-3.9062,4.0527-0.61855,1.3347-0.9278,3.1413-0.92774,5.4199zm-85.742-37.305,0,66.65-21.729,0-1.2695,0c-1.1719,0-2.0752-0.21973-2.71-0.65918-0.63477-0.43945-0.95216-1.0661-0.95215-1.8799-0.00001-1.3346,0.65103-2.2135,1.9531-2.6367,1.0742-0.35807,1.7008-0.5778,1.8799-0.65918,0.17902-0.0814,0.3662-0.26855,0.56152-0.56153,0.39061-0.52082,0.58593-1.3509,0.58594-2.4902v-48.877c-0.00001-1.1393-0.19533-1.9693-0.58594-2.4902-0.19532-0.2929-0.3825-0.48008-0.56152-0.56152-0.17905-0.0813-0.80568-0.30104-1.8799-0.65918-1.3021-0.42311-1.9531-1.302-1.9531-2.6367-0.00001-0.81373,0.31738-1.4404,0.95215-1.8799,0.63476-0.43939,1.5381-0.65911,2.71-0.65918h1.2695zm4.3457,0,19.678,0,0,17.285c-0.00005,1.0092-0.19537,1.7416-0.58594,2.1973-0.39068,0.45578-1.0092,0.68364-1.8555,0.6836-0.71619,0.00004-1.237-0.14644-1.5625-0.43946-0.32557-0.29292-0.63481-0.89513-0.92773-1.8066-1.237-3.776-3.0518-6.6568-5.4443-8.6426-2.3926-1.9856-5.4932-3.1738-9.3018-3.5644zm-0.24414,35.547,0-5.6641c1.888-0.91142,3.2877-1.9043,4.1992-2.9785,0.91142-1.0742,1.5787-2.5065,2.002-4.2969,0.26037-1.2369,0.60217-2.0914,1.0254-2.5635,0.42313-0.47196,1.0254-0.70797,1.8066-0.70801,1.0416,0.00004,1.7578,0.40695,2.1484,1.2207,0.22781,0.42322,0.34175,1.3835,0.34179,2.8809v18.604c-0.00004,1.53-0.17094,2.5879-0.51269,3.1738-0.34184,0.58596-0.96847,0.87893-1.8799,0.87891-0.74875,0.00002-1.3347-0.22785-1.7578-0.6836-0.42322-0.4557-0.76501-1.2207-1.0254-2.2949-0.55342-2.2461-1.3428-3.9713-2.3682-5.1758-1.0254-1.2044-2.3519-2.0019-3.9795-2.3926zm0.29296,31.104,0-5.2734c2.1158-0.32551,3.8655-0.78124,5.249-1.3672,1.3834-0.58593,2.775-1.4811,4.1748-2.6855,1.3997-1.2044,2.5146-2.4495,3.3447-3.7354,0.83003-1.2858,1.6194-2.9866,2.3682-5.1025,0.35803-1.0416,0.73237-1.7497,1.123-2.124,0.39057-0.37433,0.92768-0.5615,1.6113-0.56152,0.9114,0.00002,1.5462,0.26857,1.9043,0.80566,0.35801,0.53713,0.53705,1.473,0.5371,2.8076v17.236zm-94.678-19.482,0-38.281c-0.00001-1.1393-0.19532-1.9693-0.58594-2.4902-0.19532-0.2929-0.38249-0.48008-0.56152-0.56152-0.17904-0.0813-0.80567-0.30104-1.8799-0.65918-1.3021-0.42311-1.9531-1.2857-1.9531-2.5879,0-0.84629,0.31738-1.4892,0.95215-1.9287,0.63476-0.43939,1.5381-0.65911,2.71-0.65918h1.2695,21.777,1.2695l1.7578,0.19531c0.55335,0.16283,1.0091,0.4558,1.3672,0.87891,0.35804,0.42324,0.53707,0.9278,0.53711,1.5137-0.00004,1.3022-0.65108,2.1648-1.9531,2.5879-1.0742,0.35814-1.7009,0.57786-1.8799,0.65918-0.17907,0.0814-0.36624,0.26862-0.56152,0.56152-0.39066,0.5209-0.58597,1.351-0.58594,2.4902v40.967c-0.00003,2.7669,0.0732,4.6956,0.21972,5.7861,0.14646,1.0905,0.44757,2.0752,0.90332,2.9541,0.42315,0.81381,0.89516,1.3997,1.416,1.7578,0.5208,0.35808,1.5136,0.76498,2.9785,1.2207v6.3965h-1.0742c-4.2318,0-7.7474-0.37435-10.547-1.123-3.2878-0.87891-6.1686-2.181-8.6426-3.9062s-4.2318-3.6621-5.2734-5.8106c-1.1068-2.2786-1.6602-5.5989-1.6602-9.9609zm31.689,20.801,0-6.3965c3.2552-0.42317,5.9733-1.7578,8.1543-4.0039,2.4739-2.5716,3.7109-6.2663,3.7109-11.084v-31.836c-0.00005-4.4596-1.709-7.5683-5.127-9.3262-1.0092-0.52078-1.6683-0.96837-1.9775-1.3428-0.30929-0.37428-0.46392-0.91953-0.46387-1.6357-0.00005-0.84629,0.3092-1.4485,0.92773-1.8066,0.61845-0.35801,1.6276-0.53704,3.0274-0.53711h11.963c1.009,0.00007,1.6845,0.0245,2.0264,0.0732,0.34174,0.0489,0.6754,0.17096,1.001,0.36621,0.84629,0.48835,1.2695,1.1557,1.2695,2.002-0.00006,0.71621-0.26048,1.3184-0.78125,1.8066-0.16282,0.16283-0.86269,0.60228-2.0996,1.3184-1.4324,0.78131-2.5554,1.9776-3.3691,3.5889-0.81386,1.6114-1.2208,3.4424-1.2207,5.4932v31.885c-0.00006,5.4688-1.2045,9.961-3.6133,13.477-1.7579,2.6042-4.2806,4.6875-7.5684,6.25-1.6276,0.78125-3.5808,1.3509-5.8594,1.709zm-76.172-67.969,0,66.65-21.729,0-1.2695,0c-1.1719,0-2.0752-0.21973-2.71-0.65918-0.63477-0.43945-0.95215-1.0661-0.95215-1.8799,0-1.3346,0.65104-2.2135,1.9531-2.6367,1.0742-0.35807,1.7008-0.5778,1.8799-0.65918,0.17903-0.0814,0.3662-0.26855,0.56152-0.56153,0.39062-0.52082,0.58593-1.3509,0.58594-2.4902v-48.877c-0.00001-1.1393-0.19532-1.9693-0.58594-2.4902-0.19532-0.2929-0.38249-0.48008-0.56152-0.56152-0.17904-0.0813-0.80567-0.30104-1.8799-0.65918-1.3021-0.42311-1.9531-1.302-1.9531-2.6367,0-0.81373,0.31738-1.4404,0.95215-1.8799,0.63476-0.43939,1.5381-0.65911,2.71-0.65918h1.2695zm15.186,32.129c2.9296,0.58597,5.1839,1.1556,6.7627,1.709,1.5787,0.55342,3.0029,1.2533,4.2725,2.0996,2.1809,1.3998,3.8492,3.2471,5.0049,5.542,1.1555,2.2949,1.7333,4.8584,1.7334,7.6904-0.00006,5.5664-2.0508,9.9121-6.1523,13.037-2.1159,1.6276-4.4516,2.7751-7.0068,3.4424-2.5554,0.66732-5.9001,1.001-10.034,1.001h-5.8105v-5.127c1.302-0.0976,2.3274-0.28482,3.0762-0.56152,0.74866-0.27669,1.416-0.74055,2.002-1.3916,1.0742-1.2044,1.6113-3.0762,1.6113-5.6152v-11.084c-0.00004-1.6276-0.13839-2.8971-0.41504-3.8086-0.27673-0.91143-0.78943-1.7415-1.5381-2.4902-0.55342-0.5859-1.1556-1.0091-1.8066-1.2695-0.65107-0.26038-1.5788-0.47197-2.7832-0.63476v-5.0781c1.2044-0.0976,2.1403-0.26038,2.8076-0.48828,0.66728-0.22783,1.2776-0.60218,1.831-1.123,0.5208-0.48824,0.96025-1.123,1.3184-1.9043,0.35803-0.78121,0.55335-1.4974,0.58594-2.1484v-2.6856-8.4473c-0.00004-0.87885-0.14653-1.7984-0.43945-2.7588-0.29301-0.96023-0.65109-1.7171-1.0742-2.2705-0.61853-0.74864-1.3103-1.302-2.0752-1.6602-0.76501-0.35802-1.7985-0.60216-3.1006-0.73243v-5.3711h5.6152c7.4218,0.00007,13.086,1.53,16.992,4.5898,1.7903,1.3998,3.1575,3.0925,4.1016,5.0781,0.94395,1.9857,1.416,4.1342,1.416,6.4453-0.00007,2.2787-0.48021,4.4271-1.4404,6.4453-0.96035,2.0183-2.3031,3.6947-4.0283,5.0293-1.2696,1.0417-2.7344,1.8881-4.3945,2.5391-1.6602,0.65108-4.004,1.3184-7.0312,2.002z"/>
 <path id="path2834-6" stroke-linejoin="miter" d="m142.4,57.884,0,12.754,19.131-6.3771-19.131-6.3771" stroke="#9d6112" stroke-linecap="butt" stroke-width="1px" fill="url(#linearGradient5238)"/>
 <path id="path5271" stroke-linejoin="miter" d="m173.16,163.47c5.3968-2.141,10.808-4.2454,16.233-6.313l17.135-0.90186,16.684,3.1565,18.037-1.3528,17.586-4.5093,4.9602-5.4112-0.45093-3.6074,12.626,7.2149,0.45093,7.2149,9.0186,4.9602,2.2547-6.764h14.881l14.881-3.1565,6.313-3.1565,13.979,8.5677,13.528-0.90186,10.822-3.1565,9.4695,0.45093,13.528,2.2546,6.764-1.8037,15.783-1.3528,8.1167,3.1565,7.2149-3.1565,1.3528-3.6074,6.313,4.0584,17.586,0.45093,12.175,1.8037-3.1565-6.764,7.2149-2.2546,4.9602,4.5093,12.626,7.2149,8.1168-0.90186c3.4507-1.3691,6.9079-2.7219,10.371-4.0584,3.1513-1.216,6.3079-2.4185,9.4695-3.6074l4.5093,8.5677,5.4112,6.313-11.724,9.9205,7.6658,3.1565-8.1168,4.9602-24.35,1.3528-35.624-4.9602c-13.648,1.5146-27.331,2.7175-41.035,3.6074-15.163,0.98471-30.351,1.5862-45.544,1.8037l-12.626-6.764-10.822,1.3528-8.5677,4.5093-58.17,3.6074-55.014-8.1167-24.35-1.8037-20.292,1.3528-8.5677,6.764-3.6074-3.1565,11.273-9.0186-4.0584-9.0186c2.2521-0.90825,4.5068-1.8101,6.764-2.7056" stroke="#9d6115" stroke-linecap="butt" stroke-width="1px" fill="url(#linearGradient5281)"/>
 <path id="path5271-1" stroke-linejoin="miter" d="m176.31,162.34c5.3968-2.141,10.808-4.2454,16.233-6.313l17.135-0.90186,16.684,3.1565,18.037-1.3528,17.586-4.5093,4.9602-5.4112-0.45093-3.6074,12.626,7.2149,0.45093,7.2149,9.0186,4.9602,2.2547-6.764h14.881l14.881-3.1565,6.313-3.1565,13.979,8.5677,13.528-0.90186,10.822-3.1565,9.4695,0.45093,13.528,2.2546,6.764-1.8037,15.783-1.3528,8.1167,3.1565,7.2149-3.1565,1.3528-3.6074,6.313,4.0584,17.586,0.45093,12.175,1.8037-3.1565-6.764,7.2149-2.2546,4.9602,4.5093,12.626,7.2149,8.1168-0.90186c3.4507-1.3691,6.9079-2.7219,10.371-4.0584,3.1513-1.216,6.3079-2.4185,9.4695-3.6074l4.5093,8.5677,5.4112,6.313-11.724,9.9205,7.6658,3.1565-8.1168,4.9602-24.35,1.3528-35.624-4.9602c-13.648,1.5146-27.331,2.7175-41.035,3.6074-15.163,0.98471-30.351,1.5862-45.544,1.8037l-12.626-6.764-10.822,1.3528-8.5677,4.5093-58.17,3.6074-55.014-8.1167-24.35-1.8037-20.292,1.3528-8.5677,6.764-3.6074-3.1565,11.273-9.0186-4.0584-9.0186c2.2521-0.90825,4.5068-1.8101,6.764-2.7056" stroke="#9d6115" stroke-linecap="butt" stroke-width="1px" fill="url(#linearGradient5309)"/>
 <path id="path5336" stroke-linejoin="miter" d="m449.13,73.731,9.9205,4.5093,1.8037,9.0186,12.626-11.724-6.313-13.528-12.626,7.2149-5.4112,4.5093" stroke="#9d6115" stroke-linecap="butt" stroke-width="1px" fill="url(#linearGradient5346)"/>
 <path id="path5336-2" stroke-linejoin="miter" d="m447.77,71.927,9.9205,4.5093,1.8037,9.0186,12.626-11.724-6.313-13.528-12.626,7.2149-5.4112,4.5093" stroke="#9d6115" stroke-linecap="butt" stroke-width="1px" fill="#502d16"/>
</svg>
