<svg xmlns="http://www.w3.org/2000/svg" width="60" height="66">
	<path fill="#00AFE9" fill-rule="evenodd"
	      d="M55.797 15.058c-2.556 1.703-5.43 3.855-8.266 5.004-.96.39-1.64-.47-1.64-1.313-1.23-1.47-2.1-3.5-3.04-5.18-.76-1.34-1.5-2.83-2-4.29-.89-2.57-.8-5.34 1.44-7.13C44.48.4 48 .17 50.22 2.08c1.62 1.408 1.883 3.38 1.693 5.348 1.43-.694 2.75-1.46 4.67-1.11 1.66.3 3.13 1.37 3.33 3.147.31 2.736-2.14 4.283-4.1 5.594zM45.595 4.076c-1.95.455-2.493 1.817-2.39 3.38.615-.803 1.32-1.542 2.023-2.26.495-.504.965-1.04 1.616-1.192-.356-.054-.765-.04-1.25.072zm2.252.375c.002.29-.186.59-.515.61-.553.03-1.348 1.38-1.658 1.76-.74.93-1.32 1.95-1.956 2.95.15.45.32.9.495 1.35 1.167-1.74 2.88-2.96 4.593-4.13-.074-1.01-.328-1.97-.96-2.52zm.885 4.83l.013-.12c-.87.73-1.668 1.52-2.41 2.39.036.47-.3 1.01-.83 1h-.423c-.105 0-.206-.02-.304-.06.205.48.413.96.62 1.43.04-.08.075-.16.145-.24 1.05-1.18 2.222-2.26 3.405-3.31-.18-.29-.263-.66-.216-1.07zm7.56-.09c-.57-.59-2.452.23-2.99.45-.78.32-1.452.83-2.216 1.14-1.424 1.38-2.768 2.83-4.216 4.18-.314.3-.677.32-.978.19.266.78.5 1.64.827 2.36 1.2-.77 2.41-1.56 3.62-2.36-.64-.33-1.04-1.29-.4-1.85 1.24-1.08 2.49-2.15 3.72-3.24 1.1-.98 2.78.61 1.67 1.62l-.33.3c.87-.596 2.34-1.66 1.27-2.766zm-11.05 24.93c2.844-2.12 6.14-1.84 7.96 1.39 2.353 4.17.875 9.03-1.407 12.77-1.502 2.46-3.118 4.79-4.25 7.47-.837 1.98-2.42 6.16-1.868 8.49.346 1.46-1.757 2.52-2.497 1.07-.187-.36-.327-.75-.44-1.14-2.175-2.34-4.983-4.84-7.73-6.4-2.313-1.31-4.77-2.36-7.045-3.74-3.72-2.26-7.46-5.53-8.495-9.95-2.42-10.3 10.36-11.02 16.428-6.23.736.59 1.273 1.32 1.96 1.93 1.596 1.42 1.962 2.28 3.075.16 1.128-2.14 2.33-4.32 4.31-5.79zm-2.75 27.17c.027-.37.078-.74.14-1.12-.346.27-.806.21-1.13-.04.34.39.67.78.99 1.17zM22.96 41.92c-.08 1.25.295 2.443.89 3.54.166-2.396 1.28-4.627 2.054-6.89-1.57.396-2.82 1.406-2.945 3.35zm3.746-3.5c-.6 2.63-1.59 5.012-1.514 7.79.01.345-.196.553-.45.632.138.18.28.353.424.53.715-2.29 1.487-4.54 2.51-6.71.34-.726.64-1.537 1.087-2.216-.683-.088-1.384-.11-2.057-.03zm3.492.322c-.084-.028-.175-.04-.26-.067-1.673 2.608-2.26 6.542-2.897 9.37-.08.374-.32.586-.61.67.31.3.63.576.95.85.76-2.723 2.12-5.213 3.46-7.687.42-.77.76-1.62 1.19-2.397-.55-.29-1.16-.55-1.82-.74zm2.865 1.383c-.43.978-.75 2.067-1.134 2.928-1.07 2.4-1.92 4.808-2.63 7.334-.06.2-.16.35-.27.466.29.21.6.405.91.607 1.4-3.39 3.4-6.496 5.15-9.708-.66-.59-1.32-1.148-2.04-1.63zm3.367 2.843l-.32-.3c-1.434 3.275-3.003 6.573-4.705 9.68-.01.016-.02.022-.03.04.646.4 1.3.79 1.95 1.182.003-.01 0-.02.004-.03.71-1.9 1.56-3.74 2.35-5.6.58-1.35 1.07-2.81 1.67-4.17-.32-.26-.63-.53-.93-.81zm3.476 1.873c-.61-.01-1.15-.19-1.648-.46-.752 2.73-2.91 8.99-3.345 9.81-.05.1-.12.17-.195.24.733.45 1.46.91 2.166 1.41 1.55 1.09 3.013 2.47 4.35 3.96-.14-.25-.17-.56 0-.89 1.966-3.77 4.204-7.4 6.44-11.02.216-.35.547-.464.864-.43l.12-.19c1.447-2.295 2.686-4.684 2.488-7.484-.052-.74-.298-1.36-.663-1.844 0 .04.008.08 0 .124-.56 2.703-2.515 5.194-3.835 7.584-1.796 3.256-4.116 6.578-5.395 10.07-.438 1.2-2.308.777-1.97-.51.816-3.095 3.15-5.84 4.773-8.577 1.75-2.96 3.937-5.87 5.305-9.025.1-.215.27-.3.44-.305-.59-.4-1.32-.57-2.07-.43-1.39 2.82-3.1 5.55-4.62 8.31-1.64 2.99-2.8 6.25-4.5 9.19-.57.99-2.08.12-1.55-.89 2.91-5.525 6.31-10.68 9.4-16.07-.21.15-.41.31-.61.51-.82.836-1.37 1.958-1.93 2.97-.96 1.75-1.69 3.98-4 3.95zM10.403 30.73c-.62 1-1.966.474-2.028-.55C4.93 29.297-.052 27.1.33 23.038c.16-1.675 1.5-2.86 3.122-3.083 1.202-.166 2.36.286 3.463.72.578.226 1.154.56 1.742.737.282.085.37.185.392.252.02-.058.06-.148.18-.298.69-.898.86-2.304 1.56-3.27.6-.84 1.37-1.588 2.35-1.966 1.49-.573 2.93.03 3.6 1.498 2.45 5.357-4.03 9.347-6.35 13.1zm-5.61-8.056c-3.13-.292-2.016 1.787-.78 3.2.097-.456.363-.89.586-1.37.26-.568.36-1.255.83-1.68-.22-.075-.44-.132-.64-.15zm1.616.575c-.04.09-.1.18-.21.25-.36.23-.39.94-.52 1.32-.2.54-.66 1.12-.47 1.72.05.16.02.31-.05.42.2.15.4.29.6.42.02-.1.06-.21.12-.31.65-1.03 1.2-2.13 1.85-3.16-.46-.22-.91-.47-1.35-.698zm6.13-3.07c-.62 1.09-.67 2.58-1.44 3.55-.5.62-1.09.79-1.71.74-.65 1.17-1.14 2.42-1.85 3.56-.06.09-.13.17-.21.23.45.2.92.39 1.41.56.16-.31.38-.58.61-.84.01-.07.01-.14.04-.21.95-2.33 2.14-4.54 3.28-6.78.4-.79.73-1.62 1.24-2.31-.59.04-1.09.95-1.39 1.49z"/>
</svg>